<svg xmlns:xlink="http://www.w3.org/1999/xlink" xmlns="http://www.w3.org/2000/svg" fill="none" focusable="false" height="16" role="img" stroke-width="1" viewBox="0 0 24 24" width="16"><path fill-rule="evenodd" clip-rule="evenodd" d="M14.3837 3.05554C14.3285 3.11073 14.2747 3.16444 14.2225 3.21691L1.5 15.9394V22.5H8.06066L20.4918 10.0689C20.5002 10.0605 20.5088 10.0519 20.5178 10.0429L21.3531 9.2076C21.8674 8.69362 22.2182 8.34308 22.4491 7.96853C23.1934 6.76173 23.1934 5.23834 22.4491 4.03154C22.2182 3.65699 21.8674 3.30646 21.3531 2.79248L21.2076 2.64691C20.6936 2.13264 20.343 1.78188 19.9685 1.55089C18.7617 0.806605 17.2383 0.806605 16.0315 1.55089C15.657 1.78189 15.3064 2.13263 14.7924 2.64691L14.3837 3.05554ZM16.8189 2.8276C17.543 2.38103 18.457 2.38103 19.1811 2.8276C19.3862 2.95408 19.605 3.16566 20.2197 3.78037C20.8344 4.39507 21.046 4.61386 21.1724 4.81894C21.619 5.54302 21.619 6.45705 21.1724 7.18113C21.046 7.38621 20.8344 7.605 20.2197 8.2197L19.4697 8.96971C19.4674 8.972 19.4651 8.97425 19.4629 8.97645C19.3826 9.05676 19.359 9.08004 19.3408 9.09658C18.864 9.52995 18.136 9.52995 17.6592 9.09658C17.6405 9.07958 17.6161 9.05547 17.5303 8.96971L15.5303 6.96971C14.9423 6.38164 14.7857 6.21106 14.7084 6.05506C14.5351 5.70534 14.5351 5.29474 14.7084 4.94502C14.7857 4.78901 14.9423 4.61843 15.5303 4.03037L15.7803 3.78036C16.395 3.16566 16.6138 2.95408 16.8189 2.8276ZM17.6515 10.7879L7.43934 21H3V16.5607L13.2125 6.34822C13.2536 6.47514 13.3043 6.59977 13.3644 6.72108C13.5662 7.12829 13.9229 7.48445 14.3837 7.94453L16.4822 10.0429C16.5496 10.1103 16.6014 10.1622 16.6503 10.2066C16.9479 10.4771 17.2901 10.6709 17.6515 10.7879Z" fill="#4A5264"></path></svg>