<svg xmlns:xlink="http://www.w3.org/1999/xlink" xmlns="http://www.w3.org/2000/svg" fill="none" focusable="false" height="24" role="img" stroke-width="1" viewBox="0 0 24 24" width="24" aria-hidden="true"><path fill-rule="evenodd" clip-rule="evenodd" d="M19.6709 3H4.32998C3.59539 3 3 3.57723 3 4.28967V19.71C3 20.4225 3.5956 21.0002 4.32998 21.0002H19.6709C20.4053 21.0002 21 20.4221 21 19.71V4.28967C21 3.57744 20.4053 3 19.6709 3ZM8.45693 18.0674H5.73726V9.94056H8.45693V18.0674ZM7.07932 8.83029H7.09761C8.04517 8.83029 8.6352 8.20674 8.6352 7.4257C8.61712 6.62893 8.04496 6.02228 7.11477 6.02228C6.18466 6.02228 5.57609 6.62909 5.57609 7.4257C5.57609 8.20657 6.1673 8.83029 7.07932 8.83029ZM18.2606 18.0674H15.5418V13.7193C15.5418 12.6267 15.1479 11.8812 14.1647 11.8812C13.4125 11.8812 12.966 12.3841 12.77 12.8697C12.6973 13.0431 12.6793 13.2857 12.6793 13.5279V18.0673H9.96103C9.96103 18.0673 9.9966 10.7026 9.96103 9.94042H12.6797V11.0926C13.0407 10.5389 13.6856 9.74921 15.1294 9.74921C16.9188 9.74921 18.2606 10.9101 18.2606 13.4074V18.0674ZM12.7215 11.1039C12.7061 11.1253 12.6905 11.1472 12.6794 11.1655H12.7215V11.1039Z" fill="#14171F"></path></svg>