<svg xmlns:xlink="http://www.w3.org/1999/xlink" xmlns="http://www.w3.org/2000/svg" fill="none" focusable="false" height="24" role="img" stroke-width="1" viewBox="0 0 24 24" width="24"><path fill-rule="evenodd" clip-rule="evenodd" d="M24 12C24 18.6274 18.6274 24 12 24C5.37258 24 0 18.6274 0 12C0 5.37258 5.37258 0 12 0C18.6274 0 24 5.37258 24 12ZM8.63847 20.0202C8.93137 20.8794 9.28195 21.6399 9.69064 22.2452C6.51086 21.5316 3.87643 19.3755 2.51045 16.5H7.81866C8.01369 17.813 8.2924 19.0051 8.63847 20.0202ZM9.33614 16.5C9.51673 17.644 9.76314 18.6706 10.0582 19.5362C10.3823 20.4868 10.7513 21.2022 11.1243 21.6649C11.5026 22.1343 11.8033 22.25 12 22.25C12.1967 22.25 12.4974 22.1343 12.8757 21.6649C13.2487 21.2022 13.6177 20.4868 13.9418 19.5362C14.2369 18.6706 14.4833 17.644 14.6639 16.5H9.33614ZM14.8553 15H9.14473C9.05083 14.0518 9 13.0452 9 12C9 10.9548 9.05083 9.9482 9.14473 9H14.8553C14.9492 9.9482 15 10.9548 15 12C15 13.0452 14.9492 14.0518 14.8553 15ZM16.3622 15H22.0652C22.3481 14.0494 22.5 13.0425 22.5 12C22.5 10.9575 22.3481 9.95056 22.0652 9H16.3622C16.4523 9.95865 16.5 10.9647 16.5 12C16.5 13.0353 16.4523 14.0413 16.3622 15ZM16.1813 16.5H21.4896C20.1236 19.3755 17.4891 21.5316 14.3094 22.2452C14.7181 21.6399 15.0686 20.8794 15.3615 20.0202C15.7076 19.0051 15.9863 17.813 16.1813 16.5ZM16.1813 7.5H21.4896C20.1236 4.62454 17.4891 2.46843 14.3094 1.75478C14.7181 2.36007 15.0686 3.12062 15.3615 3.97982C15.7076 4.99495 15.9863 6.18699 16.1813 7.5ZM14.6639 7.5C14.4833 6.35604 14.2369 5.32943 13.9418 4.46383C13.6177 3.51324 13.2487 2.7978 12.8757 2.33509C12.4974 1.86572 12.1967 1.75 12 1.75C11.8033 1.75 11.5026 1.86572 11.1243 2.33509C10.7513 2.7978 10.3823 3.51324 10.0582 4.46383C9.76314 5.32943 9.51673 6.35604 9.33614 7.5H14.6639ZM7.81866 7.5C8.01369 6.18699 8.2924 4.99495 8.63847 3.97982C8.93137 3.12062 9.28195 2.36007 9.69064 1.75478C6.51086 2.46843 3.87643 4.62454 2.51045 7.5H7.81866ZM1.93482 9C1.65192 9.95056 1.5 10.9575 1.5 12C1.5 13.0425 1.65192 14.0494 1.93482 15H7.63777C7.54769 14.0413 7.5 13.0353 7.5 12C7.5 10.9647 7.54769 9.95865 7.63777 9H1.93482Z" fill="#222834"></path></svg>