<svg xmlns:xlink="http://www.w3.org/1999/xlink" xmlns="http://www.w3.org/2000/svg" fill="none" focusable="false" height="16" role="img" stroke-width="1" viewBox="0 0 24 24" width="16"><path d="M15 14.25C13.703 14.0662 12.6838 13.047 12.5 11.75H11.5C11.3162 13.047 10.297 14.0662 9 14.25V15.25C10.297 15.4338 11.3162 16.453 11.5 17.75H12.5C12.6838 16.453 13.703 15.4338 15 15.25V14.25Z" fill="#4A5264"></path><path fill-rule="evenodd" clip-rule="evenodd" d="M1.5 1.5H5.5V0.5H7V1.5H17V0.5H18.5V1.5H22.5V16.9821C22.5 17.795 22.5 18.4506 22.4566 18.9815C22.412 19.5281 22.3176 20.0082 22.0913 20.4525C21.7317 21.1581 21.1581 21.7317 20.4525 22.0913C20.0082 22.3176 19.5281 22.412 18.9815 22.4566C18.4506 22.5 17.795 22.5 16.9821 22.5H7.01788C6.20505 22.5 5.54944 22.5 5.01853 22.4566C4.4719 22.412 3.99175 22.3176 3.54754 22.0913C2.84193 21.7317 2.26825 21.1581 1.90873 20.4525C1.68239 20.0082 1.58803 19.5281 1.54336 18.9815C1.49999 18.4506 1.49999 17.7949 1.5 16.9821V1.5ZM5.5 3V5.5H7V3H17V5.5H18.5V3H21V6C21 6.9665 20.2165 7.75 19.25 7.75H4.75C3.7835 7.75 3 6.9665 3 6V3H5.5ZM19.25 9.25C19.8943 9.25 20.4949 9.0625 21 8.73909V16.95C21 17.8025 20.9994 18.3967 20.9616 18.8593C20.9245 19.3132 20.8554 19.574 20.7548 19.7715C20.539 20.1948 20.1948 20.539 19.7715 20.7548C19.574 20.8554 19.3132 20.9245 18.8593 20.9616C18.3967 20.9994 17.8025 21 16.95 21H7.05C6.19755 21 5.60331 20.9994 5.14068 20.9616C4.6868 20.9245 4.42604 20.8554 4.22852 20.7548C3.80516 20.539 3.46095 20.1948 3.24524 19.7715C3.1446 19.574 3.07547 19.3132 3.03838 18.8593C3.00058 18.3967 3 17.8025 3 16.95V8.73909C3.50515 9.0625 4.10568 9.25 4.75 9.25H19.25Z" fill="#4A5264"></path></svg>