<svg xmlns:xlink="http://www.w3.org/1999/xlink" xmlns="http://www.w3.org/2000/svg" fill="none" focusable="false" height="16" role="img" stroke-width="1" viewBox="0 0 24 24" width="16"><g clip-path="url(#clip0_891_55650)" fill="none"><path d="M11.25 5V12.3107L15.4697 16.5303L16.5303 15.4697L12.75 11.6893V5H11.25Z" fill="#4A5264"></path><path fill-rule="evenodd" clip-rule="evenodd" d="M12 24C18.6274 24 24 18.6274 24 12C24 5.37258 18.6274 0 12 0C5.37258 0 0 5.37258 0 12C0 18.6274 5.37258 24 12 24ZM22.5 12C22.5 17.799 17.799 22.5 12 22.5C6.20101 22.5 1.5 17.799 1.5 12C1.5 6.20101 6.20101 1.5 12 1.5C17.799 1.5 22.5 6.20101 22.5 12Z" fill="#4A5264"></path></g><defs><clipPath id="clip0_891_55650"><rect width="24" height="24" fill="white"></rect></clipPath></defs></svg>