<svg xmlns:xlink="http://www.w3.org/1999/xlink" xmlns="http://www.w3.org/2000/svg" fill="none" focusable="false" height="24" role="img" stroke-width="1" viewBox="0 0 24 24" width="24"><g clip-path="url(#clip0_891_54146)" fill="none"><path d="M13.5 5.5C13.5 6.32843 12.8284 7 12 7C11.1716 7 10.5 6.32843 10.5 5.5C10.5 4.67157 11.1716 4 12 4C12.8284 4 13.5 4.67157 13.5 5.5Z" fill="#4A5264"></path><path d="M17.5 10C18.3284 10 19 9.32843 19 8.5C19 7.67157 18.3284 7 17.5 7C16.6716 7 16 7.67157 16 8.5C16 9.32843 16.6716 10 17.5 10Z" fill="#4A5264"></path><path d="M8 8.5C8 9.32843 7.32843 10 6.5 10C5.67157 10 5 9.32843 5 8.5C5 7.67157 5.67157 7 6.5 7C7.32843 7 8 7.67157 8 8.5Z" fill="#4A5264"></path><path d="M6.5 16.25C7.32843 16.25 8 15.5784 8 14.75C8 13.9216 7.32843 13.25 6.5 13.25C5.67157 13.25 5 13.9216 5 14.75C5 15.5784 5.67157 16.25 6.5 16.25Z" fill="#4A5264"></path><path fill-rule="evenodd" clip-rule="evenodd" d="M23.5702 15.1943C23.2588 16.3247 22.1604 17 20.9879 17H15C13.3431 17 12 18.3431 12 20V21C12 22.6569 10.636 24.0385 9.03036 23.6297C3.83928 22.3082 0 17.6024 0 12C0 5.37258 5.37258 0 12 0C18.6274 0 24 5.37258 24 12C24 13.1061 23.8503 14.1773 23.5702 15.1943ZM22.124 14.796C22.3688 13.9075 22.5 12.9703 22.5 12C22.5 6.20101 17.799 1.5 12 1.5C6.20101 1.5 1.5 6.20101 1.5 12C1.5 16.9001 4.85796 21.0197 9.40042 22.1761C9.66412 22.2432 9.89347 22.1783 10.0984 21.9887C10.3233 21.7804 10.5 21.4244 10.5 21V20C10.5 17.5147 12.5147 15.5 15 15.5H20.9879C21.6364 15.5 22.0291 15.1406 22.124 14.796Z" fill="#4A5264"></path></g><defs><clipPath id="clip0_891_54146"><rect width="24" height="24" fill="white"></rect></clipPath></defs></svg>