<svg xmlns:xlink="http://www.w3.org/1999/xlink" xmlns="http://www.w3.org/2000/svg" fill="none" focusable="false" height="24" role="img" stroke-width="1" viewBox="0 0 24 24" width="24"><path d="M14.2818 1.78448L8.28182 21.7845L9.71856 22.2155L15.7186 2.21551L14.2818 1.78448Z" fill="#4A5264"></path><path d="M7.53052 6.53033L3.79326 10.2676C3.38849 10.6724 3.11722 10.9444 2.9251 11.1708C2.73866 11.3904 2.6712 11.5171 2.63979 11.6137C2.55822 11.8648 2.55822 12.1352 2.63979 12.3863C2.6712 12.4829 2.73866 12.6096 2.9251 12.8292C3.11722 13.0555 3.38849 13.3276 3.79326 13.7324L7.53052 17.4697L6.46986 18.5303L2.71106 14.7715C2.33337 14.3938 2.01809 14.0786 1.78159 13.8C1.53492 13.5094 1.33018 13.2098 1.21321 12.8498C1.03375 12.2975 1.03375 11.7025 1.21321 11.1502C1.33018 10.7902 1.53492 10.4906 1.78159 10.2C2.0181 9.9214 2.33337 9.60614 2.71108 9.22844L6.46986 5.46967L7.53052 6.53033Z" fill="#4A5264"></path><path d="M16.4699 6.53033L20.2071 10.2676C20.6119 10.6724 20.8832 10.9444 21.0753 11.1708C21.2617 11.3904 21.3292 11.5171 21.3606 11.6137C21.4422 11.8648 21.4422 12.1352 21.3606 12.3863C21.3292 12.4829 21.2617 12.6096 21.0753 12.8292C20.8831 13.0555 20.6119 13.3276 20.2071 13.7324L16.4699 17.4697L17.5305 18.5303L21.2893 14.7715C21.667 14.3939 21.9823 14.0786 22.2188 13.8C22.4655 13.5094 22.6702 13.2098 22.7872 12.8498C22.9666 12.2975 22.9666 11.7025 22.7872 11.1502C22.6702 10.7902 22.4655 10.4906 22.2188 10.2C21.9823 9.9214 21.667 9.60614 21.2893 9.22844L17.5305 5.46967L16.4699 6.53033Z" fill="#4A5264"></path></svg>