<svg xmlns:xlink="http://www.w3.org/1999/xlink" xmlns="http://www.w3.org/2000/svg" fill="none" focusable="false" height="24" role="img" stroke-width="1" viewBox="0 0 24 24" width="24"><g clip-path="url(#clip0_891_54148)" fill="none"><path fill-rule="evenodd" clip-rule="evenodd" d="M24 12C24 8.95619 22.8667 6.17706 20.9991 4.06153L21.3107 3.75H24V2.25H21.75V0H20.25V2.68934L19.9385 3.00088C17.8229 1.13326 15.0438 0 12 0C5.37258 0 0 5.37258 0 12C0 18.6274 5.37258 24 12 24C18.6274 24 24 18.6274 24 12ZM22.5 12C22.5 17.799 17.799 22.5 12 22.5C6.20101 22.5 1.5 17.799 1.5 12C1.5 6.20101 6.20101 1.5 12 1.5C14.6296 1.5 17.0334 2.46661 18.8754 4.0639L16.3911 6.54824C15.1902 5.57979 13.6628 5 12 5C8.13401 5 5 8.13401 5 12C5 15.866 8.13401 19 12 19C15.866 19 19 15.866 19 12C19 10.3372 18.4202 8.80976 17.4518 7.6089L19.9361 5.12456C21.5334 6.96665 22.5 9.37044 22.5 12ZM12 6.5C13.2484 6.5 14.3996 6.9159 15.3226 7.6167L12.8708 10.0685C12.6831 9.74668 12.5546 9.38562 12.5 9H11.5C11.3162 10.297 10.297 11.3162 9 11.5V12.5C10.297 12.6838 11.3162 13.703 11.5 15H12.5C12.6838 13.703 13.703 12.6838 15 12.5V11.5C14.6144 11.4454 14.2533 11.3169 13.9315 11.1292L16.3833 8.67736C17.0841 9.60043 17.5 10.7516 17.5 12C17.5 15.0376 15.0376 17.5 12 17.5C8.96243 17.5 6.5 15.0376 6.5 12C6.5 8.96243 8.96243 6.5 12 6.5Z" fill="#4A5264"></path></g><defs><clipPath id="clip0_891_54148"><rect width="24" height="24" fill="white"></rect></clipPath></defs></svg>