<svg xmlns:xlink="http://www.w3.org/1999/xlink" xmlns="http://www.w3.org/2000/svg" fill="none" focusable="false" height="24" role="img" stroke-width="1" viewBox="0 0 24 24" width="24"><path fill-rule="evenodd" clip-rule="evenodd" d="M22.75 9.79256V4.52478L22.7501 4.46625C22.7504 4.25067 22.7508 4.02919 22.7074 3.83618C22.5313 3.05248 21.8444 2.48929 21.0413 2.47031C20.8436 2.46564 20.6265 2.50944 20.4151 2.55207L20.3578 2.56362L8.80379 4.87439C8.48089 4.93883 8.23012 4.98887 8.00794 5.07481C7.10731 5.42316 6.45539 6.21838 6.29043 7.16984C6.24973 7.40456 6.24984 7.66028 6.24998 7.98954L6.25 13.8745C6.24998 13.9222 6.24999 13.9711 6.24999 14.0212L6.25 16.6294C5.59402 16.2349 4.76994 16 3.875 16C1.7349 16 0 17.3432 0 19C0 20.6569 1.7349 22 3.875 22C6.0151 22 7.75 20.6569 7.75 19V14.099C7.75 13.2936 7.75271 12.984 7.79778 12.724C7.99273 11.5996 8.76319 10.6598 9.82757 10.2481C10.0736 10.1529 10.3767 10.0895 11.1665 9.93158L19.1568 8.33352C19.7433 8.21621 19.9125 8.18721 20.0295 8.18998C20.6031 8.20354 21.0938 8.60582 21.2196 9.1656C21.2453 9.27985 21.25 9.45138 21.25 10.0495V13.6294C20.594 13.2349 19.7699 13 18.875 13C16.7349 13 15 14.3432 15 16C15 17.6569 16.7349 19 18.875 19C21.0151 19 22.75 17.6569 22.75 16L22.75 9.96005C22.7501 9.90259 22.7501 9.84679 22.75 9.79256ZM20.9446 3.97854C20.8795 3.98909 20.7933 4.00621 20.6519 4.03449L9.1568 6.33352C8.74744 6.41539 8.63459 6.44072 8.54906 6.4738C8.13969 6.63215 7.84336 6.99361 7.76837 7.42609C7.75271 7.51644 7.75 7.63207 7.75 8.04953V9.81508C8.18859 9.40352 8.7078 9.07291 9.28644 8.84909C9.6685 8.70131 10.1081 8.61344 10.796 8.47596L18.9504 6.84507C19.4079 6.7533 19.7577 6.68314 20.065 6.6904C20.4883 6.7004 20.8911 6.80666 21.25 6.98997V4.52478C21.25 4.38059 21.2499 4.2927 21.2475 4.22682C21.2459 4.18476 21.2438 4.16637 21.2432 4.16192C21.2172 4.05261 21.1214 3.97406 21.0091 3.96999C21.0046 3.9703 20.9862 3.9718 20.9446 3.97854ZM3.875 17.5C5.56641 17.5 6.25 18.5061 6.25 19C6.25 19.494 5.56641 20.5 3.875 20.5C2.18359 20.5 1.5 19.494 1.5 19C1.5 18.5061 2.18359 17.5 3.875 17.5ZM18.875 14.5C20.5664 14.5 21.25 15.5061 21.25 16C21.25 16.494 20.5664 17.5 18.875 17.5C17.1836 17.5 16.5 16.494 16.5 16C16.5 15.5061 17.1836 14.5 18.875 14.5Z" fill="#4A5264"></path></svg>