<svg xmlns:xlink="http://www.w3.org/1999/xlink" xmlns="http://www.w3.org/2000/svg" fill="none" focusable="false" height="24" role="img" stroke-width="1" viewBox="0 0 24 24" width="24"><path fill-rule="evenodd" clip-rule="evenodd" d="M5.46556 8.87984L5.46231 8.86769C8.98073 7.92493 11.9835 5.61867 13.805 2.46365C14.8554 0.644311 17.5878 0.994817 18.1332 3.03038L18.6791 5.06745C18.7778 5.43562 19.234 5.7834 19.9317 5.87829C21.5629 6.10014 23.1324 7.19833 23.5954 8.92651C24.0585 10.6547 23.2484 12.3905 21.9466 13.3982C21.3898 13.8293 21.1687 14.3585 21.2673 14.7267L21.8131 16.7638C22.3585 18.7993 20.1674 20.4691 18.3481 19.4187C15.8108 17.9538 12.8864 17.3462 10.0085 17.6548C10.549 18.1274 10.96 18.76 11.1597 19.5056L11.9362 22.4033L10.4873 22.7916L9.71084 19.8938C9.38922 18.6935 8.15546 17.9812 6.95516 18.3028L5.98924 18.5616C5.39387 18.7183 4.94955 18.8188 4.5357 18.8188C3.19596 18.8188 1.95798 18.1041 1.28811 16.9438C1.04034 16.5147 0.896054 15.9755 0.684609 15.1853L0.624669 14.9616C0.412704 14.1716 0.268066 13.6325 0.268066 13.137C0.268066 11.7972 0.982812 10.5592 2.14307 9.88937C2.57222 9.64159 3.1114 9.49731 3.90156 9.28587L4.52077 9.11998C4.88398 9.02265 5.19653 8.9389 5.46556 8.87984ZM15.104 3.21365C15.4896 2.54593 16.4865 2.68023 16.6844 3.41861L20.3642 17.152C20.5621 17.8904 19.7658 18.5052 19.0981 18.1197C16.2839 16.4949 13.0402 15.8209 9.84765 16.1635C9.88753 16.0279 9.91713 15.8885 9.93581 15.7466C9.97684 15.435 9.94437 15.1336 9.88319 14.8217C9.82443 14.5221 9.72839 14.1637 9.61335 13.7344L9.08264 11.7538C8.96761 11.3245 8.87159 10.9661 8.77267 10.6772C8.6697 10.3765 8.54713 10.0993 8.35578 9.8499C8.26865 9.73634 8.17336 9.63049 8.07101 9.53298C11.0071 8.23334 13.4793 6.02786 15.104 3.21365ZM20.6765 12.5218C20.7917 12.4071 20.9104 12.3034 21.0284 12.2121C21.9523 11.4969 22.4228 10.3459 22.1466 9.31474C21.8703 8.2836 20.8873 7.52207 19.7295 7.36461C19.5817 7.3445 19.427 7.3141 19.2699 7.27239L20.6765 12.5218ZM7.57017 16.5672C7.33608 16.6474 7.02842 16.7303 6.5703 16.853L6.06305 16.9889C5.13413 17.2377 4.80502 17.3188 4.5357 17.3188C3.73186 17.3188 2.98907 16.89 2.58715 16.1938C2.45148 15.9588 2.35674 15.6302 2.10355 14.6852C1.85036 13.7403 1.76807 13.4083 1.76807 13.137C1.76807 12.3331 2.19691 11.5903 2.89307 11.1884C3.12804 11.0527 3.45672 10.958 4.40165 10.7048L4.88461 10.5754C5.34459 10.4522 5.6534 10.3698 5.8968 10.3221C6.13357 10.2756 6.25442 10.2738 6.33722 10.2847C6.6659 10.328 6.96394 10.5 7.16575 10.763C7.21659 10.8293 7.2754 10.9349 7.35357 11.1632C7.43393 11.3978 7.51704 11.7064 7.64029 12.1664L8.15793 14.0982C8.28118 14.5582 8.3635 14.867 8.41124 15.1104C8.45768 15.3472 8.45954 15.4681 8.44864 15.5509C8.40537 15.8795 8.2333 16.1776 7.97029 16.3794C7.90404 16.4302 7.79844 16.489 7.57017 16.5672Z" fill="#4A5264"></path></svg>