<svg xmlns:xlink="http://www.w3.org/1999/xlink" xmlns="http://www.w3.org/2000/svg" fill="none" focusable="false" height="24" role="img" stroke-width="1" viewBox="0 0 24 24" width="24"><g clip-path="url(#clip0_891_54154)" fill="none"><path fill-rule="evenodd" clip-rule="evenodd" d="M12 9C13.6569 9 15 7.65685 15 6C15 4.34315 13.6569 3 12 3C10.3431 3 9 4.34315 9 6C9 7.65685 10.3431 9 12 9ZM12 7.5C12.8284 7.5 13.5 6.82843 13.5 6C13.5 5.17157 12.8284 4.5 12 4.5C11.1716 4.5 10.5 5.17157 10.5 6C10.5 6.82843 11.1716 7.5 12 7.5Z" fill="#4A5264"></path><path fill-rule="evenodd" clip-rule="evenodd" d="M15 18C15 19.6569 13.6569 21 12 21C10.3431 21 9 19.6569 9 18C9 16.3431 10.3431 15 12 15C13.6569 15 15 16.3431 15 18ZM13.5 18C13.5 18.8284 12.8284 19.5 12 19.5C11.1716 19.5 10.5 18.8284 10.5 18C10.5 17.1716 11.1716 16.5 12 16.5C12.8284 16.5 13.5 17.1716 13.5 18Z" fill="#4A5264"></path><path fill-rule="evenodd" clip-rule="evenodd" d="M6 15C7.65685 15 9 13.6569 9 12C9 10.3431 7.65685 9 6 9C4.34315 9 3 10.3431 3 12C3 13.6569 4.34315 15 6 15ZM6 13.5C6.82843 13.5 7.5 12.8284 7.5 12C7.5 11.1716 6.82843 10.5 6 10.5C5.17157 10.5 4.5 11.1716 4.5 12C4.5 12.8284 5.17157 13.5 6 13.5Z" fill="#4A5264"></path><path fill-rule="evenodd" clip-rule="evenodd" d="M21 12C21 13.6569 19.6569 15 18 15C16.3431 15 15 13.6569 15 12C15 10.3431 16.3431 9 18 9C19.6569 9 21 10.3431 21 12ZM19.5 12C19.5 12.8284 18.8284 13.5 18 13.5C17.1716 13.5 16.5 12.8284 16.5 12C16.5 11.1716 17.1716 10.5 18 10.5C18.8284 10.5 19.5 11.1716 19.5 12Z" fill="#4A5264"></path><path fill-rule="evenodd" clip-rule="evenodd" d="M17.814 22.5C21.5031 20.4529 24 16.518 24 12C24 5.37258 18.6274 0 12 0C5.37258 0 0 5.37258 0 12C0 18.6274 5.37258 24 12 24H24V22.5H17.814ZM22.5 12C22.5 17.799 17.799 22.5 12 22.5C6.20101 22.5 1.5 17.799 1.5 12C1.5 6.20101 6.20101 1.5 12 1.5C17.799 1.5 22.5 6.20101 22.5 12Z" fill="#4A5264"></path></g><defs><clipPath id="clip0_891_54154"><rect width="24" height="24" fill="white"></rect></clipPath></defs></svg>