<svg xmlns:xlink="http://www.w3.org/1999/xlink" xmlns="http://www.w3.org/2000/svg" fill="none" focusable="false" height="24" role="img" stroke-width="1" viewBox="0 0 24 24" width="24"><path fill-rule="evenodd" clip-rule="evenodd" d="M19.2436 10.3484C19.0326 10.4758 18.8089 10.5723 18.5789 10.6381C18.7912 10.962 18.9056 11.3419 18.9062 11.7318C18.9063 11.8439 18.8933 11.9607 18.8674 12.1942L18.3102 17.2092C18.2511 17.7413 18.2215 18.0074 18.1567 18.2401C17.8932 19.1873 17.1823 19.9453 16.2538 20.2689C16.0258 20.3484 15.7621 20.3949 15.235 20.488L3.00009 22.6471L1.35303 21L3.5121 8.76528C3.60515 8.23799 3.65167 7.97435 3.73116 7.74626C4.05475 6.81782 4.81273 6.10686 5.75997 5.84334C5.99268 5.7786 6.25875 5.74903 6.79088 5.68991L11.8059 5.13269C12.0394 5.10674 12.1562 5.09377 12.2683 5.09392C12.5823 5.09434 12.8898 5.16867 13.1668 5.30848C13.2428 5.01577 13.3679 4.7328 13.542 4.47217C13.6935 4.24539 13.9079 4.03125 14.1857 3.7537L17.7501 0.189331L23.8394 6.27864L19.9632 9.76726C19.6846 10.0182 19.4693 10.2123 19.2436 10.3484ZM18.4685 9.06422C18.051 9.31622 17.525 9.30239 17.1213 9.02879C17.0376 8.97207 16.9408 8.87997 16.6033 8.54249L15.2982 7.23743C14.9442 6.88345 14.8473 6.78134 14.7892 6.69445C14.5083 6.27408 14.5083 5.7259 14.7892 5.30553C14.8473 5.21865 14.9442 5.11653 15.2982 4.76255L17.7501 2.31065L21.6608 6.22134L19.0114 8.60581C18.6567 8.92509 18.5551 9.01197 18.4685 9.06422ZM17.0898 11.211C17.1772 11.2985 17.2263 11.3476 17.2628 11.3858C17.2858 11.4097 17.295 11.4203 17.2972 11.4229C17.3675 11.5112 17.4059 11.6206 17.4062 11.7335C17.4061 11.737 17.4055 11.7509 17.4025 11.784C17.3978 11.8366 17.3902 11.9057 17.3766 12.0286L16.8194 17.0435C16.7543 17.6291 16.7361 17.75 16.7116 17.8381C16.5799 18.3117 16.2244 18.6907 15.7602 18.8525C15.6739 18.8826 15.5544 18.9084 14.9741 19.0108L4.13772 20.9231L8.97618 16.0847C9.42281 16.3486 9.94378 16.5 10.5001 16.5C12.157 16.5 13.5001 15.1568 13.5001 13.5C13.5001 11.8431 12.157 10.5 10.5001 10.5C8.84327 10.5 7.50012 11.8431 7.50012 13.5C7.50012 14.0564 7.65158 14.5774 7.91551 15.024L3.07692 19.8626L4.98927 9.02595C5.09166 8.44573 5.11753 8.32623 5.1476 8.23992C5.30939 7.7757 5.68839 7.42022 6.16201 7.28846C6.25006 7.26396 6.37098 7.2458 6.95652 7.18074L11.9715 6.62351C12.0944 6.60986 12.1635 6.60227 12.2161 6.59757C12.2492 6.59461 12.2631 6.59402 12.2666 6.59392C12.3794 6.59415 12.4889 6.63255 12.5771 6.70285C12.5798 6.70513 12.5904 6.71432 12.6143 6.73725C12.6499 6.77135 12.6951 6.81636 12.772 6.89326L17.0898 11.211ZM10.5001 12C11.3285 12 12.0001 12.6716 12.0001 13.5C12.0001 14.3284 11.3285 15 10.5001 15C9.67169 15 9.00012 14.3284 9.00012 13.5C9.00012 12.6716 9.67169 12 10.5001 12Z" fill="#4A5264"></path></svg>