<svg xmlns:xlink="http://www.w3.org/1999/xlink" xmlns="http://www.w3.org/2000/svg" fill="none" focusable="false" height="22" role="img" stroke-width="1" viewBox="0 0 24 24" width="22" color="gray70"><path fill-rule="evenodd" clip-rule="evenodd" d="M17.5001 6.5C17.5001 9.53757 15.0376 12 12.0001 12C8.96249 12 6.50006 9.53757 6.50006 6.5C6.50006 3.46243 8.96249 1 12.0001 1C15.0376 1 17.5001 3.46243 17.5001 6.5ZM16.0001 6.5C16.0001 8.70914 14.2092 10.5 12.0001 10.5C9.79092 10.5 8.00006 8.70914 8.00006 6.5C8.00006 4.29086 9.79092 2.5 12.0001 2.5C14.2092 2.5 16.0001 4.29086 16.0001 6.5Z" fill="#14171F"></path><path fill-rule="evenodd" clip-rule="evenodd" d="M12.0001 13.25C7.88465 13.25 5.01182 14.1631 3.38697 14.8835L3.35795 14.8964C2.99114 15.0589 2.69643 15.1895 2.34877 15.5222C2.20059 15.664 2.06162 15.8476 1.95286 16.0148C1.84411 16.182 1.73261 16.3834 1.66306 16.5764C1.49945 17.0302 1.49971 17.4256 1.50003 17.9139L1.50006 22.5H22.5001L22.5001 17.9139C22.5004 17.4256 22.5007 17.0302 22.3371 16.5764C22.2675 16.3834 22.156 16.182 22.0472 16.0148C21.9385 15.8476 21.7995 15.664 21.6513 15.5222C21.3037 15.1895 21.009 15.0589 20.6422 14.8964L20.6131 14.8835C18.9883 14.1631 16.1155 13.25 12.0001 13.25ZM3.995 16.2548C5.44653 15.6111 8.11308 14.75 12.0001 14.75C15.887 14.75 18.5536 15.6111 20.0051 16.2548C20.3863 16.4238 20.466 16.4641 20.6143 16.6059C20.649 16.6392 20.7165 16.7198 20.7899 16.8327C20.8633 16.9455 20.9097 17.0399 20.926 17.0851C20.9921 17.2687 21.0001 17.4051 21.0001 17.9798V21H3.00006V17.9798C3.00006 17.4051 3.00797 17.2687 3.07415 17.0851C3.09046 17.0399 3.13685 16.9455 3.21025 16.8327C3.28365 16.7198 3.35109 16.6392 3.38583 16.6059C3.5341 16.4641 3.61386 16.4238 3.995 16.2548Z" fill="#14171F"></path></svg>