<svg xmlns:xlink="http://www.w3.org/1999/xlink" fill="currentColor" height="18" viewBox="0 0 18 18" width="18" xmlns="http://www.w3.org/2000/svg"><path clip-rule="evenodd" d="M16 1.5H6.596C6.5624 1.5 6.5456 1.5 6.53276 1.50654C6.52147 1.51229 6.51229 1.52147 6.50654 1.53276C6.5 1.5456 6.5 1.5624 6.5 1.596V16.404C6.5 16.4376 6.5 16.4544 6.50654 16.4672C6.51229 16.4785 6.52147 16.4877 6.53276 16.4935C6.5456 16.5 6.5624 16.5 6.596 16.5H16C16.2761 16.5 16.5 16.2761 16.5 16V2C16.5 1.72386 16.2761 1.5 16 1.5ZM2 0H5H6.5H16C17.1046 0 18 0.895431 18 2V16C18 17.1046 17.1046 18 16 18H2C0.89543 18 0 17.1046 0 16V2C0 0.89543 0.895431 0 2 0ZM4.904 16.5C4.9376 16.5 4.9544 16.5 4.96724 16.4935C4.97853 16.4877 4.98771 16.4785 4.99346 16.4672C5 16.4544 5 16.4376 5 16.404V1.596C5 1.5624 5 1.5456 4.99346 1.53276C4.98771 1.52147 4.97853 1.51229 4.96724 1.50654C4.9544 1.5 4.9376 1.5 4.904 1.5H2C1.72386 1.5 1.5 1.72386 1.5 2V16C1.5 16.2761 1.72386 16.5 2 16.5H4.904ZM12.3376 5.53755C12.3138 5.51379 12.3019 5.50191 12.2882 5.49746C12.2762 5.49354 12.2632 5.49354 12.2511 5.49746C12.2374 5.50191 12.2255 5.51379 12.2018 5.53755L9.46967 8.26967L9.00722 8.73212C8.98346 8.75588 8.97158 8.76776 8.96713 8.78146C8.96321 8.79351 8.96321 8.80649 8.96713 8.81854C8.97158 8.83224 8.98346 8.84412 9.00722 8.86788L9.46967 9.33033L12.2018 12.0624C12.2255 12.0862 12.2374 12.0981 12.2511 12.1025C12.2632 12.1065 12.2762 12.1065 12.2882 12.1025C12.3019 12.0981 12.3138 12.0862 12.3376 12.0624L13.2624 11.1376C13.2862 11.1138 13.2981 11.1019 13.3025 11.0882C13.3065 11.0762 13.3065 11.0632 13.3025 11.0511C13.2981 11.0374 13.2862 11.0255 13.2624 11.0018L11.1285 8.86788C11.1048 8.84412 11.0929 8.83224 11.0884 8.81854C11.0845 8.80649 11.0845 8.79351 11.0884 8.78146C11.0929 8.76776 11.1048 8.75588 11.1285 8.73212L13.2624 6.59821C13.2862 6.57445 13.2981 6.56257 13.3025 6.54887C13.3065 6.53682 13.3065 6.52384 13.3025 6.51179C13.2981 6.49809 13.2862 6.48621 13.2624 6.46245L12.3376 5.53755Z" fill="#677084" fill-rule="evenodd"></path></svg>