<svg xmlns:xlink="http://www.w3.org/1999/xlink" fill="currentColor" height="18" viewBox="0 0 18 18" width="18" xmlns="http://www.w3.org/2000/svg"><path clip-rule="evenodd" d="M16 1.5H6.56C6.52686 1.5 6.5 1.52686 6.5 1.56V16.44C6.5 16.4731 6.52686 16.5 6.56 16.5H16C16.2761 16.5 16.5 16.2761 16.5 16V2C16.5 1.72386 16.2761 1.5 16 1.5ZM2 0H5H6.5H16C17.1046 0 18 0.895431 18 2V16C18 17.1046 17.1046 18 16 18H2C0.89543 18 0 17.1046 0 16V2C0 0.89543 0.895431 0 2 0ZM4.94 16.5C4.97314 16.5 5 16.4731 5 16.44V1.56C5 1.52686 4.97314 1.5 4.94 1.5H2C1.72386 1.5 1.5 1.72386 1.5 2V16C1.5 16.2761 1.72386 16.5 2 16.5H4.94ZM10.488 12.088C10.5114 12.1114 10.5494 12.1114 10.5728 12.088L13.3304 9.33043L13.8183 8.84252C13.8417 8.81909 13.8417 8.7811 13.8183 8.75767L13.3304 8.26977L10.5728 5.51219C10.5494 5.48876 10.5114 5.48876 10.488 5.51219L9.51215 6.488C9.48871 6.51143 9.48871 6.54942 9.51215 6.57285L11.697 8.75767C11.7204 8.7811 11.7204 8.81909 11.697 8.84252L9.51215 11.0273C9.48871 11.0508 9.48871 11.0888 9.51215 11.1122L10.488 12.088Z" fill="#677084" fill-rule="evenodd"></path></svg>