<svg xmlns:xlink="http://www.w3.org/1999/xlink" xmlns="http://www.w3.org/2000/svg" fill="none" focusable="false" height="22" role="img" stroke-width="1" viewBox="0 0 24 24" width="22" color="gray70"><path fill-rule="evenodd" clip-rule="evenodd" d="M24 12C24 18.6274 18.6274 24 12 24C5.37258 24 0 18.6274 0 12C0 5.37258 5.37258 0 12 0C18.6274 0 24 5.37258 24 12ZM12 22.5C17.799 22.5 22.5 17.799 22.5 12C22.5 6.20101 17.799 1.5 12 1.5C6.20101 1.5 1.5 6.20101 1.5 12C1.5 17.799 6.20101 22.5 12 22.5ZM6.75 9.74487C6.75 8.08108 8.09877 6.73231 9.76256 6.73231H12.2613L12.6659 4.5L14.1419 4.76755L13.7857 6.73231H16.7459V8.23231H13.5138L12.9654 11.2574H14.3719C16.0357 11.2574 17.3845 12.6062 17.3845 14.27C17.3845 15.9338 16.0357 17.2826 14.3719 17.2826H11.8733L11.4684 19.5161L9.99243 19.2486L10.3488 17.2826H7.3886V15.7826H10.6207L11.1691 12.7574H9.76257C8.09877 12.7574 6.75 11.4087 6.75 9.74487ZM11.441 11.2574L11.9894 8.23231H9.76256C8.9272 8.23231 8.25 8.90951 8.25 9.74487C8.25 10.5802 8.9272 11.2574 9.76257 11.2574H11.441ZM12.6935 12.7574L12.1452 15.7826H14.3719C15.2073 15.7826 15.8845 15.1054 15.8845 14.27C15.8845 13.4346 15.2073 12.7574 14.3719 12.7574H12.6935Z" fill="#14171F"></path></svg>