<svg xmlns:xlink="http://www.w3.org/1999/xlink" xmlns="http://www.w3.org/2000/svg" fill="none" focusable="false" height="24" role="img" stroke-width="1" viewBox="0 0 24 24" width="24"><g clip-path="url(#clip0_891_56533)" fill="none"><path d="M9.74628 7.92537L10.7463 17.9254L9.25372 18.0746L8.25372 8.07463L9.74628 7.92537Z" fill="#D92D20"></path><path d="M13.2537 17.9254L14.2537 7.92537L15.7463 8.07463L14.7463 18.0746L13.2537 17.9254Z" fill="#D92D20"></path><path fill-rule="evenodd" clip-rule="evenodd" d="M11.4196 4.22031e-07C10.8854 -1.06048e-05 10.4396 -1.94255e-05 10.0753 0.0297396C9.69545 0.0607774 9.33879 0.127889 9.00153 0.299733C8.48408 0.563384 8.06338 0.984081 7.79973 1.50153C7.62789 1.83879 7.56078 2.19545 7.52974 2.57533C7.51904 2.70624 7.51219 2.84769 7.50781 3H1.29551C1.23298 2.99986 1.16881 2.9999 1.10291 2.99995L1 3V4.5C1.70836 4.5 1.9043 4.50751 2.05062 4.55033C2.41521 4.65705 2.71149 4.92378 2.85579 5.2752C2.9137 5.41623 2.94168 5.61031 3.01583 6.31478L4.45553 19.9919C4.50627 20.4741 4.54882 20.8783 4.60977 21.2082C4.67359 21.5537 4.76674 21.8749 4.94843 22.1748C5.22893 22.6379 5.63987 23.0078 6.12975 23.2383C6.44705 23.3876 6.77622 23.4466 7.12649 23.4739C7.46094 23.5 7.86745 23.5 8.35223 23.5H15.6477C16.1325 23.5 16.5391 23.5 16.8735 23.4739C17.2238 23.4466 17.5529 23.3876 17.8703 23.2383C18.3601 23.0078 18.7711 22.6379 19.0516 22.1748C19.2333 21.8749 19.3264 21.5537 19.3902 21.2082C19.4512 20.8784 19.4937 20.4742 19.5444 19.9922L20.9842 6.31478C21.0583 5.61031 21.0863 5.41623 21.1442 5.2752C21.2885 4.92378 21.5848 4.65705 21.9494 4.55033C22.0957 4.50751 22.2916 4.5 23 4.5V3L22.8975 2.99995C22.8316 2.9999 22.767 2.99986 22.7045 3H16.4922C16.4878 2.84769 16.481 2.70624 16.4703 2.57533C16.4392 2.19545 16.3721 1.83879 16.2003 1.50153C15.9366 0.984081 15.5159 0.563384 14.9985 0.299733C14.6612 0.127889 14.3046 0.0607774 13.9247 0.0297396C13.5604 -1.94255e-05 13.1146 -1.06048e-05 12.5804 4.22031e-07H11.4196ZM14.9916 3C14.9879 2.88876 14.9827 2.7889 14.9752 2.69748C14.9518 2.41035 14.9099 2.27307 14.8638 2.18251C14.7439 1.94731 14.5527 1.75608 14.3175 1.63624C14.2269 1.5901 14.0896 1.54822 13.8025 1.52476C13.5066 1.50058 13.1224 1.5 12.55 1.5H11.45C10.8776 1.5 10.4934 1.50058 10.1975 1.52476C9.91035 1.54822 9.77307 1.5901 9.68251 1.63624C9.44731 1.75608 9.25608 1.94731 9.13624 2.18251C9.0901 2.27307 9.04822 2.41035 9.02476 2.69748C9.01729 2.7889 9.01207 2.88876 9.00843 3H14.9916ZM4.14898 4.5H19.851C19.8169 4.56687 19.7854 4.63539 19.7566 4.70545C19.6059 5.07259 19.561 5.50231 19.5031 6.05584L18.0557 19.8065C18.0012 20.3244 17.9643 20.6702 17.9152 20.9357C17.8678 21.1921 17.8185 21.3153 17.7686 21.3977C17.6411 21.6081 17.4543 21.7763 17.2316 21.8811C17.1445 21.9221 17.0169 21.9582 16.7569 21.9785C16.4877 21.9995 16.14 22 15.6192 22H8.38084C7.86004 22 7.51231 21.9995 7.24309 21.9785C6.98314 21.9582 6.85552 21.9221 6.76835 21.8811C6.54568 21.7763 6.35889 21.6081 6.23139 21.3977C6.18148 21.3153 6.13217 21.1921 6.08481 20.9357C6.03575 20.6702 5.99882 20.3244 5.9443 19.8065L4.49691 6.05584C4.43905 5.5023 4.39412 5.07259 4.24337 4.70545C4.21461 4.63539 4.1831 4.56687 4.14898 4.5Z" fill="#D92D20"></path></g><defs><clipPath id="clip0_891_56533"><rect width="24" height="24" fill="white"></rect></clipPath></defs></svg>