<svg xmlns:xlink="http://www.w3.org/1999/xlink" xmlns="http://www.w3.org/2000/svg" fill="none" focusable="false" height="24" role="img" stroke-width="1" viewBox="0 0 24 24" width="24"><path fill-rule="evenodd" clip-rule="evenodd" d="M14.9999 9C14.9999 10.6569 13.6567 12 11.9999 12C10.343 12 8.99986 10.6569 8.99986 9C8.99986 7.34315 10.343 6 11.9999 6C13.6567 6 14.9999 7.34315 14.9999 9ZM13.4999 9C13.4999 9.82843 12.8283 10.5 11.9999 10.5C11.1714 10.5 10.4999 9.82843 10.4999 9C10.4999 8.17157 11.1714 7.5 11.9999 7.5C12.8283 7.5 13.4999 8.17157 13.4999 9Z" fill="#FFFFFF"></path><path fill-rule="evenodd" clip-rule="evenodd" d="M2.99986 1.25V6.47299L0.17627 7.8234L0.823453 9.1766L2.99986 8.13571V19.75C2.99986 20.4404 2.44022 21 1.74986 21H0.999878L0.999861 22.5H22.9999L22.9999 21H22.2499C21.5595 21 20.9999 20.4404 20.9999 19.75V8.13571L23.1763 9.1766L23.8235 7.8234L12.3271 2.32514L12.3235 2.3234L11.9999 2.16649L11.6777 2.32272L9.35558 3.40635C9.18984 3.4837 8.99986 3.36271 8.99986 3.1798V1.25H2.99986ZM4.49986 5.75559L7.80748 4.17369C7.61516 3.89623 7.49986 3.5568 7.49986 3.1798V2.75H4.49986V5.75559ZM19.7997 21C19.608 20.625 19.4999 20.2001 19.4999 19.75V7.46987L11.9999 3.83351L4.49986 7.46987V19.75C4.49986 20.2001 4.39172 20.625 4.20001 21H8.99986V15.5C8.99986 14.5335 9.78336 13.75 10.7499 13.75H13.2499C14.2164 13.75 14.9999 14.5335 14.9999 15.5V21H19.7997ZM10.4999 15.5V21H13.4999V15.5C13.4999 15.3619 13.3879 15.25 13.2499 15.25H10.7499C10.6118 15.25 10.4999 15.3619 10.4999 15.5Z" fill="#FFFFFF"></path></svg>