<svg xmlns:xlink="http://www.w3.org/1999/xlink" xmlns="http://www.w3.org/2000/svg" fill="none" focusable="false" height="16" role="img" stroke-width="1" viewBox="0 0 24 24" width="16"><g clip-path="url(#clip0_891_52934)" fill="none"><path d="M13 8C13 8.55228 12.5523 9 12 9C11.4477 9 11 8.55228 11 8C11 7.44772 11.4477 7 12 7C12.5523 7 13 7.44772 13 8Z" fill="#14171F"></path><path d="M11.25 11V17H12.75V11H11.25Z" fill="#14171F"></path><path fill-rule="evenodd" clip-rule="evenodd" d="M24 12C24 18.6274 18.6274 24 12 24C5.37258 24 0 18.6274 0 12C0 5.37258 5.37258 0 12 0C18.6274 0 24 5.37258 24 12ZM12 22.5C17.799 22.5 22.5 17.799 22.5 12C22.5 6.20101 17.799 1.5 12 1.5C6.20101 1.5 1.5 6.20101 1.5 12C1.5 17.799 6.20101 22.5 12 22.5Z" fill="#14171F"></path></g><defs><clipPath id="clip0_891_52934"><rect width="24" height="24" fill="white"></rect></clipPath></defs></svg>