<svg xmlns:xlink="http://www.w3.org/1999/xlink" xmlns="http://www.w3.org/2000/svg" fill="none" focusable="false" height="16" role="img" stroke-width="1" viewBox="0 0 24 24" width="16"><path fill-rule="evenodd" clip-rule="evenodd" d="M10.69 23H13.3V22.99C13.76 22.99 14.16 22.68 14.27 22.23L14.6 20.86C14.68 20.53 14.96 20.24 15.35 20.08C15.74 19.92 16.13 19.93 16.42 20.11L17.63 20.84C18.03 21.07 18.53 21.02 18.86 20.69L20.71 18.84C21.03 18.51 21.09 18.01 20.85 17.62L20.12 16.41C19.94 16.11 19.93 15.72 20.09 15.34C20.25 14.95 20.54 14.67 20.87 14.59L22.24 14.26C22.69 14.15 23 13.75 23 13.29V10.68C23 10.22 22.69 9.82 22.24 9.71L20.87 9.38C20.54 9.3 20.25 9.03 20.09 8.64C19.93 8.25 19.94 7.86 20.12 7.57L20.85 6.37C21.1 5.98 21.04 5.47 20.71 5.14L18.86 3.3C18.54 2.97 18.03 2.91 17.64 3.15L16.43 3.88C16.13 4.06 15.75 4.07 15.36 3.91C14.97 3.75 14.69 3.46 14.61 3.13L14.28 1.76C14.17 1.31 13.77 1 13.31 1H10.7C10.24 1 9.84 1.31 9.73 1.76L9.4 3.13C9.32 3.46 9.04 3.75 8.65 3.91C8.26 4.07 7.87 4.06 7.58 3.88L6.37 3.15C5.97 2.91 5.47 2.97 5.14 3.3L3.3 5.14C2.97 5.47 2.91 5.98 3.15 6.37L3.88 7.58C4.06 7.88 4.07 8.27 3.91 8.65C3.75 9.03 3.46 9.31 3.13 9.39L1.76 9.72C1.31 9.83 1 10.23 1 10.69V13.3C1 13.76 1.31 14.16 1.76 14.27L3.13 14.6C3.46 14.68 3.75 14.96 3.91 15.35C4.07 15.74 4.06 16.13 3.88 16.42L3.15 17.63C2.91 18.03 2.97 18.53 3.3 18.86L5.14 20.71C5.46 21.03 5.97 21.09 6.36 20.85L7.57 20.12C7.87 19.94 8.26 19.93 8.64 20.09C9.03 20.25 9.31 20.54 9.39 20.87L9.72 22.24C9.83 22.69 10.23 23 10.69 23ZM12.91 21.5H11.09L10.85 20.51C10.65 19.72 10.05 19.04 9.22 18.7C8.39 18.35 7.51 18.4 6.8 18.83L5.93 19.36L4.64 18.07L5.17 17.2C5.6 16.49 5.65 15.61 5.3 14.78C4.96 13.95 4.28 13.34 3.49 13.15L2.5 12.91V11.09L3.49 10.85C4.28 10.65 4.96 10.05 5.3 9.22C5.65 8.39 5.6 7.51 5.17 6.8L4.64 5.93L5.93 4.64L6.8 5.17C7.51 5.6 8.39 5.65 9.22 5.3C10.05 4.96 10.66 4.28 10.85 3.49L11.09 2.5H12.91L13.15 3.49C13.35 4.28 13.95 4.96 14.78 5.3C15.61 5.65 16.49 5.6 17.2 5.17L18.07 4.64L19.36 5.93L18.83 6.8C18.4 7.51 18.35 8.39 18.7 9.22C19.04 10.05 19.72 10.66 20.51 10.85L21.5 11.09V12.91L20.51 13.15C19.72 13.35 19.04 13.95 18.7 14.78C18.35 15.61 18.4 16.49 18.83 17.2L19.36 18.07L18.07 19.36L17.2 18.83C16.49 18.4 15.61 18.36 14.78 18.7C13.95 19.04 13.34 19.72 13.15 20.51L12.91 21.5ZM7.5 12C7.5 14.48 9.52 16.5 12 16.5C14.48 16.5 16.5 14.48 16.5 12C16.5 9.52 14.48 7.5 12 7.5C9.52 7.5 7.5 9.52 7.5 12ZM9 12C9 10.34 10.35 9 12 9C13.66 9 15 10.34 15 12C15 13.66 13.66 15 12 15C10.34 15 9 13.66 9 12Z" fill="#FFFFFF"></path></svg>