<svg xmlns:xlink="http://www.w3.org/1999/xlink" xmlns="http://www.w3.org/2000/svg" fill="none" focusable="false" height="24" role="img" stroke-width="1" viewBox="0 0 24 24" width="24"><path d="M8 20.25H16V18.75H8V20.25Z" fill="#FFFFFF"></path><path fill-rule="evenodd" clip-rule="evenodd" d="M3 8.28833C3 7.78174 3.19224 7.29403 3.53789 6.92369L9.40699 0.635364C9.78525 0.230093 10.3147 0 10.8691 0H19C20.1046 0 21 0.89543 21 2V22C21 23.1046 20.1046 24 19 24H5C3.89543 24 3 23.1046 3 22V8.28833ZM5 22.5H19C19.2761 22.5 19.5 22.2761 19.5 22V16.5H4.5V22C4.5 22.2761 4.72386 22.5 5 22.5ZM4.5 15H19.5V2C19.5 1.72386 19.2761 1.5 19 1.5H11.75C11.0596 1.5 10.5 2.05964 10.5 2.75V7.5H5.75C5.05964 7.5 4.5 8.05964 4.5 8.75V15ZM9 3.26982L6.45183 6H9V3.26982Z" fill="#FFFFFF"></path></svg>