<svg xmlns:xlink="http://www.w3.org/1999/xlink" xmlns="http://www.w3.org/2000/svg" fill="none" focusable="false" height="24" role="img" stroke-width="1" viewBox="0 0 24 24" width="24"><path d="M7.05 3L10 3V1.5H7.0179C6.20506 1.49999 5.54944 1.49999 5.01853 1.54336C4.4719 1.58803 3.99176 1.68239 3.54754 1.90873C2.84193 2.26825 2.26825 2.84193 1.90873 3.54754C1.68239 3.99175 1.58803 4.47189 1.54336 5.01853C1.49999 5.54944 1.49999 6.20504 1.5 7.01787V16.9821C1.49999 17.795 1.49999 18.4506 1.54336 18.9815C1.58803 19.5281 1.68238 20.0082 1.90873 20.4525C2.26825 21.1581 2.84193 21.7317 3.54754 22.0913C3.99175 22.3176 4.47189 22.412 5.01853 22.4566C5.54944 22.5 6.20505 22.5 7.01788 22.5H10V21H7.05C6.19755 21 5.60331 20.9994 5.14068 20.9616C4.6868 20.9245 4.42604 20.8554 4.22852 20.7548C3.80516 20.539 3.46095 20.1948 3.24524 19.7715C3.1446 19.574 3.07547 19.3132 3.03838 18.8593C3.00058 18.3967 3 17.8025 3 16.95L3 7.05C3 6.19755 3.00058 5.60331 3.03838 5.14068C3.07547 4.6868 3.1446 4.42604 3.24524 4.22852C3.46095 3.80516 3.80516 3.46095 4.22852 3.24524C4.42604 3.1446 4.68681 3.07547 5.14068 3.03838C5.60331 3.00058 6.19755 3 7.05 3Z" fill="#14171F"></path><path d="M15.4697 6.53033L20.1893 11.25L9 11.25V12.75L20.1893 12.75L15.4697 17.4697L16.5303 18.5303L23.0607 12L16.5303 5.46967L15.4697 6.53033Z" fill="#14171F"></path></svg>