<svg xmlns:xlink="http://www.w3.org/1999/xlink" xmlns="http://www.w3.org/2000/svg" fill="none" focusable="false" height="24" role="img" stroke-width="1" viewBox="0 0 24 24" width="24"><path d="M15.0001 9.75C13.7031 9.56622 12.6839 8.547 12.5001 7.25H11.5001C11.3163 8.547 10.2971 9.56622 9.00009 9.75V10.75C10.2971 10.9338 11.3163 11.953 11.5001 13.25H12.5001C12.6839 11.953 13.7031 10.9338 15.0001 10.75V9.75Z" fill="#FFFFFF"></path><path fill-rule="evenodd" clip-rule="evenodd" d="M6.81651 3.31021C7.2117 2.22344 8.24455 1.5 9.40094 1.5H14.5992C15.7556 1.5 16.7885 2.22344 17.1837 3.31021L17.6163 4.5L18.5805 4.5C19.1147 4.49999 19.5605 4.49998 19.9248 4.52974C20.3046 4.56078 20.6613 4.62789 20.9986 4.79973C21.516 5.06338 21.9367 5.48408 22.2004 6.00153C22.3722 6.33879 22.4393 6.69545 22.4703 7.07533C22.5001 7.43956 22.5001 7.8854 22.5001 8.41955L22.5001 9.14823C22.5002 9.24386 22.5002 9.33687 22.5001 9.42743V17.5805C22.5001 18.1146 22.5001 18.5604 22.4703 18.9247C22.4393 19.3046 22.3722 19.6612 22.2004 19.9985C21.9367 20.5159 21.516 20.9366 20.9986 21.2003C20.6613 21.3721 20.3046 21.4392 19.9248 21.4703C19.5605 21.5 19.1147 21.5 18.5805 21.5H5.41964C4.88549 21.5 4.43965 21.5 4.07542 21.4703C3.69553 21.4392 3.33888 21.3721 3.00161 21.2003C2.48417 20.9366 2.06347 20.5159 1.79982 19.9985C1.62798 19.6612 1.56086 19.3046 1.52983 18.9247C1.50007 18.5604 1.50008 18.1146 1.50009 17.5804V9.42692C1.49996 9.33652 1.5 9.24367 1.50004 9.14822L1.50009 8.41957C1.50008 7.88541 1.50007 7.43956 1.52983 7.07533C1.56086 6.69545 1.62798 6.33879 1.79982 6.00153C2.06347 5.48408 2.48417 5.06338 3.00161 4.79973C3.33888 4.62789 3.69553 4.56078 4.07542 4.52974C4.43965 4.49998 4.88549 4.49999 5.41964 4.5L6.38386 4.5L6.81651 3.31021ZM15.774 3.82282L16.0202 4.5H7.97995L8.2262 3.82282C8.40583 3.32883 8.87531 3 9.40094 3H14.5992C15.1249 3 15.5943 3.32883 15.774 3.82282ZM21.0001 9V8.45C21.0001 7.87757 20.9995 7.49336 20.9753 7.19748C20.9519 6.91035 20.91 6.77307 20.8638 6.68251C20.744 6.44731 20.5528 6.25608 20.3176 6.13624C20.227 6.0901 20.0897 6.04822 19.8026 6.02476C19.5067 6.00058 19.1225 6 18.5501 6H5.45009C4.87766 6 4.49344 6.00058 4.19757 6.02476C3.91044 6.04822 3.77316 6.0901 3.6826 6.13624C3.4474 6.25608 3.25617 6.44731 3.13633 6.68251C3.09019 6.77307 3.0483 6.91035 3.02485 7.19748C3.00067 7.49336 3.00009 7.87757 3.00009 8.45V9C3.00009 10.2924 3.01233 10.7355 3.15131 11.0952C3.29676 11.4717 3.54077 11.802 3.85777 12.0517C4.16069 12.2904 4.58061 12.4324 5.81588 12.8125L10.809 14.3488C11.3587 14.5179 11.5469 14.573 11.7321 14.5952C11.9101 14.6165 12.0901 14.6165 12.2681 14.5952C12.4533 14.573 12.6415 14.5179 13.1911 14.3488L18.1843 12.8125C19.4196 12.4324 19.8395 12.2904 20.1424 12.0517C20.4594 11.802 20.7034 11.4717 20.8489 11.0952C20.9878 10.7355 21.0001 10.2924 21.0001 9ZM3.00009 13.2838V17.55C3.00009 18.1224 3.00067 18.5066 3.02485 18.8025C3.0483 19.0896 3.09019 19.2269 3.13633 19.3175C3.25617 19.5527 3.4474 19.7439 3.6826 19.8638C3.77316 19.9099 3.91044 19.9518 4.19757 19.9752C4.49345 19.9994 4.87766 20 5.45009 20H18.5501C19.1225 20 19.5067 19.9994 19.8026 19.9752C20.0897 19.9518 20.227 19.9099 20.3176 19.8638C20.5528 19.7439 20.744 19.5527 20.8638 19.3175C20.91 19.2269 20.9519 19.0896 20.9753 18.8025C20.9995 18.5066 21.0001 18.1224 21.0001 17.55V13.2838C20.4586 13.683 19.7606 13.8974 18.7671 14.2026L13.5717 15.8011C13.1052 15.9448 12.7821 16.0443 12.4468 16.0845C12.15 16.1201 11.8501 16.1201 11.5534 16.0845C11.218 16.0443 10.895 15.9448 10.4285 15.8012L5.23307 14.2026C4.23958 13.8974 3.54161 13.683 3.00009 13.2838Z" fill="#FFFFFF"></path></svg>