<svg xmlns:xlink="http://www.w3.org/1999/xlink" xmlns="http://www.w3.org/2000/svg" fill="none" focusable="false" height="24" role="img" stroke-width="1" viewBox="0 0 24 24" width="24"><g clip-path="url(#clip0_891_52940)" fill="none"><path d="M11 16C11 15.4477 11.4477 15 12 15C12.5523 15 13 15.4477 13 16C13 16.5523 12.5523 17 12 17C11.4477 17 11 16.5523 11 16Z" fill="#14171F"></path><path d="M12 6.75C10.2051 6.75 8.75 8.20507 8.75 10H10.25C10.25 9.0335 11.0335 8.25 12 8.25H12.1148C13.0179 8.25 13.75 8.98209 13.75 9.88516V10.1537C13.75 10.6601 13.4417 11.1156 12.9715 11.3036C11.9318 11.7195 11.25 12.7265 11.25 13.8463V14H12.75V13.8463C12.75 13.3399 13.0583 12.8844 13.5285 12.6964C14.5682 12.2805 15.25 11.2735 15.25 10.1537V9.88516C15.25 8.15366 13.8463 6.75 12.1148 6.75H12Z" fill="#14171F"></path><path fill-rule="evenodd" clip-rule="evenodd" d="M24 12C24 18.6274 18.6274 24 12 24C5.37258 24 0 18.6274 0 12C0 5.37258 5.37258 0 12 0C18.6274 0 24 5.37258 24 12ZM12 22.5C17.799 22.5 22.5 17.799 22.5 12C22.5 6.20101 17.799 1.5 12 1.5C6.20101 1.5 1.5 6.20101 1.5 12C1.5 17.799 6.20101 22.5 12 22.5Z" fill="#14171F"></path></g><defs><clipPath id="clip0_891_52940"><rect width="24" height="24" fill="white"></rect></clipPath></defs></svg>