<svg xmlns:xlink="http://www.w3.org/1999/xlink" fill="none" height="16" viewBox="0 0 16 16" width="16" xmlns="http://www.w3.org/2000/svg"><path clip-rule="evenodd" d="M11.9445 3.62219C12.2166 3.51335 12.4866 3.78338 12.3778 4.05548L10.0532 9.86693C10.0192 9.95188 9.95184 10.0191 9.8668 10.0529L4.08174 12.351C3.81008 12.4589 3.54098 12.1898 3.6489 11.9182L5.94708 6.1332C5.98087 6.04816 6.04812 5.98075 6.13307 5.94677L11.9445 3.62219ZM9.2424 9.2424L10.6969 5.3031L6.7576 6.7576L5.33338 10.6665L9.2424 9.2424Z" fill="#FFFFFF" fill-rule="evenodd"></path><path clip-rule="evenodd" d="M8 16C12.4183 16 16 12.4183 16 8C16 3.58172 12.4183 0 8 0C3.58172 0 0 3.58172 0 8C0 12.4183 3.58172 16 8 16ZM15 8C15 11.866 11.866 15 8 15C4.13401 15 1 11.866 1 8C1 4.13401 4.13401 1 8 1C11.866 1 15 4.13401 15 8Z" fill="#FFFFFF" fill-rule="evenodd"></path></svg>