<svg xmlns:xlink="http://www.w3.org/1999/xlink" fill="none" height="33" viewBox="0 0 491 33" width="491" xmlns="http://www.w3.org/2000/svg"><path d="M20.9 21.09C21.92 23.64 22.804 24.524 24.47 24.524V25H15.596V24.524C18.894 24.524 19.642 23.742 18.724 21.396L16.956 16.874H6.858L5.09 21.396C4.172 23.742 4.92 24.524 8.048 24.524V25H0.704V24.524C2.336 24.524 3.186 23.64 4.206 21.056L12.298 0.417998H12.774L20.9 21.09ZM7.232 15.922H16.582L11.89 3.92L7.232 15.922ZM29.0239 22.348C29.0239 23.776 29.6699 24.32 31.5739 24.524V25H24.6379V24.524C26.5079 24.32 27.1539 23.776 27.1539 22.348V4.09C27.1539 2.22 26.5419 1.914 24.6379 2.322V1.846L28.5479 0.417998H29.0239V22.348ZM37.0019 22.348C37.0019 23.776 37.6479 24.32 39.5519 24.524V25H32.6159V24.524C34.4859 24.32 35.1319 23.776 35.1319 22.348V4.09C35.1319 2.22 34.5199 1.914 32.6159 2.322V1.846L36.5259 0.417998H37.0019V22.348ZM49.2507 32.208C47.9247 32.208 46.3607 31.596 46.3607 30.508C46.3607 29.896 46.8367 29.454 47.4827 29.454C48.3327 29.454 49.1147 30.576 50.4407 30.576C51.9027 30.576 53.0587 29.42 53.9767 26.938L54.7247 24.966L48.9447 10.686C48.4007 9.326 47.6527 8.612 46.6327 8.544V8.068H53.1607V8.544C51.1547 8.646 50.4747 9.326 50.9847 10.686L55.6767 22.45L60.0967 10.686C60.6067 9.326 59.9607 8.646 58.1587 8.544V8.068H63.4627V8.544C62.4087 8.612 61.6607 9.326 61.1167 10.686L54.8947 27.21C53.7727 30.202 51.9707 32.208 49.2507 32.208ZM70.511 25.51C66.091 25.51 63.099 22.042 63.099 16.908C63.099 11.332 66.261 7.558 70.885 7.558C75.305 7.558 78.331 11.026 78.331 16.16C78.331 21.77 75.169 25.51 70.511 25.51ZM65.139 15.208C65.139 20.308 67.689 24.558 71.225 24.558C74.149 24.558 76.291 21.736 76.291 17.894C76.291 12.76 73.741 8.51 70.171 8.51C67.213 8.51 65.139 11.332 65.139 15.208ZM93.903 25.51C92.611 25.51 91.727 24.558 91.727 23.096V21.464C89.653 24.388 87.851 25.51 85.811 25.51C82.751 25.51 80.983 23.368 80.983 19.934V11.23C80.983 9.326 80.337 9.054 78.433 9.462V8.986L82.343 7.558H82.819V19.662C82.819 22.416 84.349 23.776 86.729 23.776C88.633 23.776 89.959 22.79 91.727 20.682V11.23C91.727 9.326 91.081 9.054 89.211 9.462V8.986L93.121 7.558H93.597V22.96C93.597 23.776 94.039 24.218 94.617 24.218C95.059 24.218 95.501 23.912 95.943 23.164L96.351 23.334C95.569 25.102 94.515 25.51 93.903 25.51ZM105.545 7.558C107.143 7.558 107.993 8.272 107.993 9.156C107.993 9.734 107.585 10.278 106.973 10.278C105.851 10.278 105.953 9.19 104.661 9.19C102.927 9.19 101.363 11.23 101.363 13.95V22.382C101.363 24.014 102.655 24.32 104.865 24.524V25H96.9769V24.524C98.8129 24.354 99.4929 23.742 99.4929 22.382V11.23C99.4929 9.326 98.8809 9.054 96.9769 9.462V8.986L100.887 7.558H101.363V11.57C102.043 8.986 103.675 7.558 105.545 7.558ZM124.075 8.068V9.02H119.383V22.484C119.383 24.014 120.641 24.32 122.885 24.524V25H114.963V24.524C116.221 24.32 117.513 24.014 117.513 22.484V9.02H114.623V8.068H117.513V6.266C117.513 2.356 119.621 0.316 122.749 0.316C124.279 0.316 126.455 0.859999 126.455 2.322C126.455 3.002 125.809 3.478 125.197 3.308C123.803 3.104 124.381 1.268 122.239 1.268C120.403 1.268 119.383 2.798 119.383 5.45V8.068H124.075ZM133.629 7.558C135.227 7.558 136.077 8.272 136.077 9.156C136.077 9.734 135.669 10.278 135.057 10.278C133.935 10.278 134.037 9.19 132.745 9.19C131.011 9.19 129.447 11.23 129.447 13.95V22.382C129.447 24.014 130.739 24.32 132.949 24.524V25H125.061V24.524C126.897 24.354 127.577 23.742 127.577 22.382V11.23C127.577 9.326 126.965 9.054 125.061 9.462V8.986L128.971 7.558H129.447V11.57C130.127 8.986 131.759 7.558 133.629 7.558ZM143.519 25.476C138.759 25.476 135.903 21.804 135.903 16.908C135.903 11.434 139.031 7.558 143.553 7.558C147.497 7.558 149.571 11.026 149.163 14.732H137.977C137.943 15.14 137.943 15.582 137.943 16.024C137.943 20.512 140.323 23.776 144.505 23.776C146.443 23.776 148.211 22.382 148.823 20.274L149.265 20.376C148.755 23.436 146.443 25.476 143.519 25.476ZM138.045 14.018H147.225C147.395 10.89 145.661 8.51 143.009 8.51C140.153 8.51 138.487 10.55 138.045 14.018ZM158.47 25.476C153.71 25.476 150.854 21.804 150.854 16.908C150.854 11.434 153.982 7.558 158.504 7.558C162.448 7.558 164.522 11.026 164.114 14.732H152.928C152.894 15.14 152.894 15.582 152.894 16.024C152.894 20.512 155.274 23.776 159.456 23.776C161.394 23.776 163.162 22.382 163.774 20.274L164.216 20.376C163.706 23.436 161.394 25.476 158.47 25.476ZM152.996 14.018H162.176C162.346 10.89 160.612 8.51 157.96 8.51C155.104 8.51 153.438 10.55 152.996 14.018ZM170.216 22.348C170.216 23.776 170.862 24.32 172.766 24.524V25H165.83V24.524C167.7 24.32 168.346 23.776 168.346 22.348V4.09C168.346 2.22 167.734 1.914 165.83 2.322V1.846L169.74 0.417998H170.216V22.348ZM179.214 25.51C176.698 25.51 174.624 23.708 174.624 21.09C174.624 17.656 176.698 15.786 181.322 15.31L184.518 15.038V13.61C184.518 10.482 182.852 8.51 180.234 8.51C177.31 8.51 176.358 10.448 176.698 11.978C176.936 13.032 176.664 13.61 176.086 13.78C175.474 13.984 174.624 13.712 174.624 12.454C174.658 10.516 176.426 7.558 180.914 7.558C184.246 7.558 186.388 9.87 186.388 13.644V22.96C186.388 23.776 186.796 24.218 187.408 24.218C187.85 24.218 188.292 23.912 188.7 23.164L189.142 23.334C188.326 25.102 187.306 25.51 186.694 25.51C185.504 25.51 184.518 24.626 184.518 23.028V21.022C183.498 23.878 181.594 25.51 179.214 25.51ZM176.664 20.512C176.664 22.518 178.228 23.946 180.098 23.946C181.934 23.946 183.498 22.484 184.518 20.172V15.922L181.458 16.296C178.16 16.704 176.664 18.064 176.664 20.512ZM204.885 22.348C204.885 23.776 205.531 24.32 207.435 24.524V25H200.499V24.524C202.403 24.32 203.049 23.776 203.049 22.348V13.304C203.049 10.55 201.791 9.054 199.479 9.054C197.541 9.054 195.875 10.312 194.107 12.42V22.348C194.107 23.776 194.753 24.32 196.657 24.524V25H189.721V24.524C191.591 24.32 192.237 23.776 192.237 22.348V11.23C192.237 9.326 191.625 9.054 189.721 9.462V8.986L193.631 7.558H194.107V11.604C196.011 8.952 197.983 7.558 200.023 7.558C203.083 7.558 204.885 9.734 204.885 13.236V22.348ZM221.12 12.896C219.93 9.7 218.026 8.51 215.578 8.51C212.45 8.51 210.172 11.536 210.172 15.582C210.172 19.9 212.654 23.776 216.904 23.776C219.046 23.776 220.95 22.314 221.664 20.036L222.106 20.138C221.494 23.3 219.08 25.476 215.952 25.476C211.532 25.476 208.166 21.804 208.166 16.874C208.166 11.536 211.294 7.558 215.442 7.558C219.352 7.558 220.168 9.836 220.372 7.558H220.78L221.596 12.896H221.12ZM230.832 25.476C226.072 25.476 223.216 21.804 223.216 16.908C223.216 11.434 226.344 7.558 230.866 7.558C234.81 7.558 236.884 11.026 236.476 14.732H225.29C225.256 15.14 225.256 15.582 225.256 16.024C225.256 20.512 227.636 23.776 231.818 23.776C233.756 23.776 235.524 22.382 236.136 20.274L236.578 20.376C236.068 23.436 233.756 25.476 230.832 25.476ZM225.358 14.018H234.538C234.708 10.89 232.974 8.51 230.322 8.51C227.466 8.51 225.8 10.55 225.358 14.018ZM259.973 22.348C259.973 23.776 260.619 24.32 262.523 24.524V25H255.587V24.524C257.491 24.32 258.137 23.776 258.137 22.348V13.304C258.137 10.55 256.879 9.054 254.567 9.054C252.629 9.054 250.963 10.312 249.195 12.42V22.348C249.195 23.776 249.841 24.32 251.745 24.524V25H244.809V24.524C246.679 24.32 247.325 23.776 247.325 22.348V11.23C247.325 9.326 246.713 9.054 244.809 9.462V8.986L248.719 7.558H249.195V11.604C251.099 8.952 253.071 7.558 255.111 7.558C258.171 7.558 259.973 9.734 259.973 13.236V22.348ZM270.87 25.476C266.11 25.476 263.254 21.804 263.254 16.908C263.254 11.434 266.382 7.558 270.904 7.558C274.848 7.558 276.922 11.026 276.514 14.732H265.328C265.294 15.14 265.294 15.582 265.294 16.024C265.294 20.512 267.674 23.776 271.856 23.776C273.794 23.776 275.562 22.382 276.174 20.274L276.616 20.376C276.106 23.436 273.794 25.476 270.87 25.476ZM265.396 14.018H274.576C274.746 10.89 273.012 8.51 270.36 8.51C267.504 8.51 265.838 10.55 265.396 14.018ZM285.821 25.476C281.061 25.476 278.205 21.804 278.205 16.908C278.205 11.434 281.333 7.558 285.855 7.558C289.799 7.558 291.873 11.026 291.465 14.732H280.279C280.245 15.14 280.245 15.582 280.245 16.024C280.245 20.512 282.625 23.776 286.807 23.776C288.745 23.776 290.513 22.382 291.125 20.274L291.567 20.376C291.057 23.436 288.745 25.476 285.821 25.476ZM280.347 14.018H289.527C289.697 10.89 287.963 8.51 285.311 8.51C282.455 8.51 280.789 10.55 280.347 14.018ZM300.228 25.51C295.91 25.51 293.156 21.94 293.156 16.908C293.156 11.298 296.25 7.558 300.84 7.558C302.778 7.558 304.614 8.408 305.6 9.666V4.09C305.6 2.22 304.988 1.914 303.084 2.322V1.846L306.994 0.417998H307.47V22.96C307.47 23.776 307.912 24.218 308.49 24.218C308.932 24.218 309.408 23.912 309.816 23.164L310.224 23.334C309.442 25.102 308.388 25.51 307.776 25.51C306.518 25.51 305.634 24.558 305.634 23.13V21.124C304.988 23.708 302.88 25.51 300.228 25.51ZM295.23 15.548C295.23 20.682 297.508 24.252 301.078 24.252C303.288 24.252 305.056 22.382 305.6 20.07V13.814C305.6 11.298 303.934 8.51 300.466 8.51C297.304 8.51 295.23 11.366 295.23 15.548ZM317.179 25.476C313.983 25.476 312.419 22.892 312.385 25.51H311.909L311.059 20.104H311.535C312.521 22.994 314.867 24.524 317.145 24.524C319.457 24.524 321.089 23.198 321.089 21.226C321.089 16.262 311.263 17.894 311.263 12.046C311.263 9.326 313.405 7.558 316.329 7.558C319.491 7.558 320.953 10.108 320.953 7.558H321.429L322.211 12.556H321.735C320.749 10.006 318.845 8.51 316.397 8.51C314.391 8.51 312.895 9.734 312.895 11.502C312.895 16.058 322.721 14.222 322.721 20.58C322.721 23.402 320.579 25.476 317.179 25.476ZM334.882 22.348C334.882 23.776 335.528 24.32 337.432 24.524V25H330.496V24.524C332.366 24.32 333.012 23.776 333.012 22.348V11.23C333.012 9.326 332.4 9.054 330.496 9.462V8.986L334.406 7.558H334.882V22.348ZM332.23 3.036C332.23 2.118 332.978 1.404 333.93 1.404C334.814 1.404 335.528 2.118 335.528 3.036C335.528 3.954 334.814 4.634 333.93 4.634C332.978 4.634 332.23 3.954 332.23 3.036ZM353.339 22.348C353.339 23.776 353.985 24.32 355.889 24.524V25H348.953V24.524C350.857 24.32 351.503 23.776 351.503 22.348V13.304C351.503 10.55 350.245 9.054 347.933 9.054C345.995 9.054 344.329 10.312 342.561 12.42V22.348C342.561 23.776 343.207 24.32 345.111 24.524V25H338.175V24.524C340.045 24.32 340.691 23.776 340.691 22.348V11.23C340.691 9.326 340.079 9.054 338.175 9.462V8.986L342.085 7.558H342.561V11.604C344.465 8.952 346.437 7.558 348.477 7.558C351.537 7.558 353.339 9.734 353.339 13.236V22.348ZM370.948 25.51C366.528 25.51 363.536 22.042 363.536 16.908C363.536 11.332 366.698 7.558 371.322 7.558C375.742 7.558 378.768 11.026 378.768 16.16C378.768 21.77 375.606 25.51 370.948 25.51ZM365.576 15.208C365.576 20.308 368.126 24.558 371.662 24.558C374.586 24.558 376.728 21.736 376.728 17.894C376.728 12.76 374.178 8.51 370.608 8.51C367.65 8.51 365.576 11.332 365.576 15.208ZM394.937 22.348C394.937 23.776 395.583 24.32 397.487 24.524V25H390.551V24.524C392.455 24.32 393.101 23.776 393.101 22.348V13.304C393.101 10.55 391.843 9.054 389.531 9.054C387.593 9.054 385.927 10.312 384.159 12.42V22.348C384.159 23.776 384.805 24.32 386.709 24.524V25H379.773V24.524C381.643 24.32 382.289 23.776 382.289 22.348V11.23C382.289 9.326 381.677 9.054 379.773 9.462V8.986L383.683 7.558H384.159V11.604C386.063 8.952 388.035 7.558 390.075 7.558C393.135 7.558 394.937 9.734 394.937 13.236V22.348ZM405.834 25.476C401.074 25.476 398.218 21.804 398.218 16.908C398.218 11.434 401.346 7.558 405.868 7.558C409.812 7.558 411.886 11.026 411.478 14.732H400.292C400.258 15.14 400.258 15.582 400.258 16.024C400.258 20.512 402.638 23.776 406.82 23.776C408.758 23.776 410.526 22.382 411.138 20.274L411.58 20.376C411.07 23.436 408.758 25.476 405.834 25.476ZM400.36 14.018H409.54C409.71 10.89 407.976 8.51 405.324 8.51C402.468 8.51 400.802 10.55 400.36 14.018ZM429.195 7.558C433.513 7.558 436.267 11.094 436.267 16.16C436.267 21.77 433.173 25.51 428.583 25.51C426.645 25.51 424.809 24.66 423.823 23.402V29.182C423.823 30.746 425.081 31.018 427.325 31.222V31.698H419.403V31.222C420.661 31.018 421.953 30.746 421.953 29.182V11.23C421.953 9.326 421.307 9.054 419.437 9.462V8.986L423.347 7.558H423.823V11.91C424.435 9.326 426.543 7.558 429.195 7.558ZM423.823 19.254C423.823 21.77 425.489 24.558 428.957 24.558C432.119 24.558 434.227 21.668 434.227 17.52C434.227 12.386 431.915 8.782 428.345 8.782C426.135 8.782 424.367 10.686 423.823 12.998V19.254ZM441.804 22.348C441.804 23.776 442.45 24.32 444.354 24.524V25H437.418V24.524C439.288 24.32 439.934 23.776 439.934 22.348V4.09C439.934 2.22 439.322 1.914 437.418 2.322V1.846L441.328 0.417998H441.804V22.348ZM450.802 25.51C448.286 25.51 446.212 23.708 446.212 21.09C446.212 17.656 448.286 15.786 452.91 15.31L456.106 15.038V13.61C456.106 10.482 454.44 8.51 451.822 8.51C448.898 8.51 447.946 10.448 448.286 11.978C448.524 13.032 448.252 13.61 447.674 13.78C447.062 13.984 446.212 13.712 446.212 12.454C446.246 10.516 448.014 7.558 452.502 7.558C455.834 7.558 457.976 9.87 457.976 13.644V22.96C457.976 23.776 458.384 24.218 458.996 24.218C459.438 24.218 459.88 23.912 460.288 23.164L460.73 23.334C459.914 25.102 458.894 25.51 458.282 25.51C457.092 25.51 456.106 24.626 456.106 23.028V21.022C455.086 23.878 453.182 25.51 450.802 25.51ZM448.252 20.512C448.252 22.518 449.816 23.946 451.686 23.946C453.522 23.946 455.086 22.484 456.106 20.172V15.922L453.046 16.296C449.748 16.704 448.252 18.064 448.252 20.512ZM474.57 12.896C473.38 9.7 471.476 8.51 469.028 8.51C465.9 8.51 463.622 11.536 463.622 15.582C463.622 19.9 466.104 23.776 470.354 23.776C472.496 23.776 474.4 22.314 475.114 20.036L475.556 20.138C474.944 23.3 472.53 25.476 469.402 25.476C464.982 25.476 461.616 21.804 461.616 16.874C461.616 11.536 464.744 7.558 468.892 7.558C472.802 7.558 473.618 9.836 473.822 7.558H474.23L475.046 12.896H474.57ZM484.283 25.476C479.523 25.476 476.667 21.804 476.667 16.908C476.667 11.434 479.795 7.558 484.317 7.558C488.261 7.558 490.335 11.026 489.927 14.732H478.741C478.707 15.14 478.707 15.582 478.707 16.024C478.707 20.512 481.087 23.776 485.269 23.776C487.207 23.776 488.975 22.382 489.587 20.274L490.029 20.376C489.519 23.436 487.207 25.476 484.283 25.476ZM478.809 14.018H487.989C488.159 10.89 486.425 8.51 483.773 8.51C480.917 8.51 479.251 10.55 478.809 14.018Z" fill="#14171F"></path></svg>