<svg xmlns:xlink="http://www.w3.org/1999/xlink" xmlns="http://www.w3.org/2000/svg" fill="none" focusable="false" height="24" role="img" stroke-width="1" viewBox="0 0 24 24" width="24"><path d="M19.5 13.9167C18.6353 13.7941 17.9559 13.1147 17.8333 12.25H17.1667C17.0441 13.1147 16.3647 13.7941 15.5 13.9167V14.5833C16.3647 14.7059 17.0441 15.3853 17.1667 16.25H17.8333C17.9559 15.3853 18.6353 14.7059 19.5 14.5833V13.9167Z" fill="#FFFFFF"></path><path fill-rule="evenodd" clip-rule="evenodd" d="M5.26389 2.5C5.81321 1.88625 6.6115 1.5 7.5 1.5H21C22.6569 1.5 24 2.84315 24 4.5V18.75C24 20.8211 22.3211 22.5 20.25 22.5H3.75C1.67893 22.5 0 20.8211 0 18.75V5C0 3.61929 1.11929 2.5 2.5 2.5H5.26389ZM7.5 3H21C21.8284 3 22.5 3.67157 22.5 4.5V6H6V4.5C6 3.67157 6.67157 3 7.5 3ZM22.5 7.5H2.5C2.14445 7.5 1.80623 7.42578 1.5 7.29198V18.75C1.5 19.9926 2.50736 21 3.75 21H20.25C21.4926 21 22.5 19.9926 22.5 18.75V18.7001C22.125 18.8919 21.7001 19 21.25 19H15.5C13.9812 19 12.75 17.7688 12.75 16.25V12.25C12.75 10.7312 13.9812 9.5 15.5 9.5H21.25C21.9404 9.5 22.5 8.94036 22.5 8.25V7.5ZM4.5 6V4H2.5C1.94772 4 1.5 4.44772 1.5 5C1.5 5.55228 1.94772 6 2.5 6H4.5ZM22.5 16.25C22.5 16.9404 21.9404 17.5 21.25 17.5H15.5C14.8096 17.5 14.25 16.9404 14.25 16.25V12.25C14.25 11.5596 14.8096 11 15.5 11H21.25C21.7001 11 22.125 10.8919 22.5 10.7001V16.25Z" fill="#FFFFFF"></path></svg>