<svg xmlns:xlink="http://www.w3.org/1999/xlink" fill="none" height="32" viewBox="0 0 32 32" width="32" xmlns="http://www.w3.org/2000/svg" size="24"><path clip-rule="evenodd" d="M14.0492 10.8157C13.1615 10.2508 12 10.8884 12 11.9406V20.0594C12 21.1116 13.1615 21.7492 14.0492 21.1843L20.4283 17.1249C21.2516 16.6009 21.2516 15.3991 20.4283 14.8751L14.0492 10.8157ZM18.4707 16L14 18.845V13.155L18.4707 16Z" fill="#FFFFFF" fill-rule="evenodd"></path><path clip-rule="evenodd" d="M16 32C24.8366 32 32 24.8366 32 16C32 7.16344 24.8366 0 16 0C7.16344 0 0 7.16344 0 16C0 24.8366 7.16344 32 16 32ZM30 16C30 23.732 23.732 30 16 30C8.26801 30 2 23.732 2 16C2 8.26801 8.26801 2 16 2C23.732 2 30 8.26801 30 16Z" fill="#FFFFFF" fill-rule="evenodd"></path></svg>